<?xml version="1.0" encoding="utf-8"?>
<!-- Generator: Adobe Illustrator 23.0.2, SVG Export Plug-In . SVG Version: 6.00 Build 0)  -->
<svg version="1.1" id="Calque_1" xmlns="http://www.w3.org/2000/svg" xmlns:xlink="http://www.w3.org/1999/xlink" x="0px" y="0px"
	 viewBox="0 0 257.9 257.9" style="enable-background:new 0 0 257.9 257.9;" xml:space="preserve">
<style type="text/css">
	.st0{fill:#00FFFF;}
</style>
<g>
	<path class="st0" d="M164.2,128.1C237.1,71.4,201.5,0,126.3,0C77.9,0,53.9,29.4,53.9,51.7C53.9,68.7,67.9,78,81.1,78
		c11.5,0,16.6-7.5,20.3-13c4.5-6.6,8.4-12.4,23.9-12.4c6.7,0,22.2,1.5,22.2,14.9c0,26.3-51.4,26.9-51.4,87.4
		c0,14.6,3,29.6,25.6,29.6c24.3,0,26.9-14.7,26.9-21C148.6,147.5,148.6,140.3,164.2,128.1z M133.6,163.4c0,2,0,6-11.9,6
		c-6.8,0-8-1.5-8.4-1.9c-1-1.2-2.2-4.4-2.2-12.6c0-24.3,9.8-36.1,19.4-44.4c10.7-9.1,32-21.1,32-43c0-18.2-14.6-29.9-37.2-29.9
		c-23.4,0-31.2,11.4-36.3,19c-3.6,5.3-4.7,6.4-7.9,6.4c-4.2,0-12.3-2.4-12.3-11.3C68.9,38,86.2,15,126.3,15
		c60.9,0,90.4,53.3,28.7,101.3C134.6,132.1,133.6,144.7,133.6,163.4z"/>
	<path class="st0" d="M122,192.2c-17.9,0-32.6,14.8-32.6,32.9c0,18.1,14.6,32.9,32.6,32.9c18.1,0,32.9-14.8,32.9-32.9
		C154.9,206.9,140.1,192.2,122,192.2z M122,242.9c-9.7,0-17.6-8-17.6-17.9c0-9.9,7.9-17.9,17.6-17.9c9.7,0,17.9,8.2,17.9,17.9
		C139.9,234.7,131.7,242.9,122,242.9z"/>
</g>
</svg>
