<?xml version="1.0" encoding="utf-8"?>
<!-- Generator: Adobe Illustrator 23.0.1, SVG Export Plug-In . SVG Version: 6.00 Build 0)  -->
<svg version="1.1" id="Calque_1" xmlns="http://www.w3.org/2000/svg" xmlns:xlink="http://www.w3.org/1999/xlink" x="0px" y="0px"
	 viewBox="0 0 915.4 484.1" style="enable-background:new 0 0 915.4 484.1;" xml:space="preserve">
<style type="text/css">
	.st0{fill:none;stroke:#E158EF;stroke-miterlimit:10;}
	.st1{display:none;}
	.st2{fill:none;stroke:#00F9FF;stroke-width:2;stroke-miterlimit:10;}
	.st3{fill:#00F9FF;}
	.st4{fill:none;stroke:#00FCFF;stroke-width:2;stroke-miterlimit:10;}
	.st5{fill:#00FCFF;}
	.st6{fill:#E158EF;}
	.st7{fill:none;stroke:#E158EF;stroke-width:2;stroke-miterlimit:10;}
</style>
<image style="display:none;overflow:visible;" width="1240" height="725" xlink:href="../../../Downloads/IMG_0050.JPG"  transform="matrix(0.7024 0 0 0.7024 -65.4007 -23.4578)">
</image>
<polygon points="182.3,14.2 83.9,204.2 155.4,204.2 3,470.2 213.3,381.2 906.3,377.2 794.4,181.2 714.9,181.2 818.7,15.2 "/>
<line class="st0" x1="425.7" y1="175.2" x2="697.7" y2="175.2"/>
<line class="st0" x1="270.6" y1="190.1" x2="688.3" y2="190.1"/>
<line class="st0" x1="591.5" y1="347.5" x2="863.4" y2="347.5"/>
<g class="st1">
	
		<image style="display:inline;overflow:visible;" width="3831" height="2072" xlink:href="4C19A14FC03A0F66.png"  transform="matrix(0.24 0 0 0.24 -5.8407 -11.6978)">
	</image>
</g>
<g>
	<polyline class="st2" points="371,148 380.9,179.8 694.8,179.8 	"/>
	<circle class="st3" cx="370" cy="144.3" r="4.7"/>
</g>
<g>
	<polyline class="st4" points="764.7,318.1 764.7,340.8 582.3,340.8 582.3,365.5 	"/>
	<circle class="st5" cx="764.7" cy="316.3" r="4.7"/>
</g>
<g>
	<circle class="st3" cx="209.5" cy="331.3" r="4.7"/>
	<polyline class="st2" points="209.5,331.3 228.5,331.3 228.5,310 315.6,365.9 	"/>
</g>
<g>
	<circle class="st6" cx="134.5" cy="180.9" r="4.7"/>
	<polyline class="st7" points="134.5,180.9 205.2,180.9 69.1,415.9 207.9,350.7 270,350.7 	"/>
	<circle class="st6" cx="270.6" cy="350.9" r="4.7"/>
</g>
<path class="st0" d="M162.1,350.9"/>
<path class="st0" d="M141.4,318"/>
<path class="st0" d="M158.3,355.5"/>
<path class="st0" d="M135.8,319.7"/>
<path class="st0" d="M153.2,358.2"/>
<path class="st0" d="M132.5,325.3"/>
<path class="st0" d="M148.5,361.6"/>
<path class="st0" d="M127.8,328.7"/>
<path class="st0" d="M143.5,364.4"/>
<path class="st0" d="M122.8,331.5"/>
<path class="st0" d="M143.5,375.2"/>
<path class="st0" d="M121,339.4"/>
<path class="st0" d="M138.4,377.9"/>
<path class="st0" d="M117.7,345"/>
<path class="st0" d="M132.3,378.8"/>
<path class="st0" d="M109.7,343"/>
<path class="st0" d="M127.1,381.5"/>
<path class="st0" d="M106.4,348.6"/>
<path class="st0" d="M177.9,343.3"/>
<path class="st0" d="M155.4,307.5"/>
<path class="st0" d="M198,343.9"/>
<path class="st0" d="M175.5,308.1"/>
<g>
	<polyline class="st0" points="787.9,305.4 780.8,305.4 780.8,312.3 	"/>
	<polyline class="st0" points="809.9,305.4 817,305.4 817,312.3 	"/>
	<polyline class="st0" points="809.9,340.8 817,340.8 817,333.9 	"/>
	<polyline class="st0" points="787.9,341.6 780.8,341.6 780.8,334.8 	"/>
</g>
<g>
	<line class="st0" x1="484.2" y1="39.6" x2="783.5" y2="39.6"/>
	<circle class="st6" cx="479.1" cy="39.6" r="4.7"/>
	<rect x="552" y="36.8" class="st6" width="47.6" height="5.7"/>
	<rect x="684.4" y="36.8" class="st6" width="16.1" height="5.7"/>
</g>
<polygon class="st2" points="191.9,26.9 101.9,195.1 177.9,195.1 36.5,443.9 208.3,365.9 873.4,365 778.7,195.1 685.2,195.1 
	791.6,26.9 "/>
<g>
	<polyline class="st7" points="448.4,39.9 203,40.3 139.2,164.3 	"/>
	<circle class="st6" cx="449.5" cy="39.6" r="4.7"/>
	<circle class="st6" cx="139.3" cy="164.8" r="4.7"/>
</g>
<g>
	<circle class="st3" cx="233.7" cy="237.4" r="4.7"/>
	<polyline class="st2" points="233.7,195.3 685.2,195.1 233.7,195.3 233.7,239.4 	"/>
</g>
<g>
	<polygon class="st0" points="773.3,227.5 762.9,245.7 741.9,245.7 731.5,227.5 741.9,209.4 762.9,209.4 	"/>
	<line class="st0" x1="741.9" y1="209.4" x2="762.9" y2="245.7"/>
	<line class="st0" x1="736.4" y1="218.7" x2="752" y2="245.7"/>
	<line class="st0" x1="752.6" y1="209.4" x2="768.1" y2="236.3"/>
	<line class="st0" x1="733.7" y1="223.4" x2="746.7" y2="245.4"/>
	<line class="st0" x1="757.1" y1="209.4" x2="770.8" y2="231.8"/>
	<line class="st0" x1="738.8" y1="214.4" x2="756.9" y2="245.7"/>
	<line class="st0" x1="747.3" y1="209.2" x2="765.6" y2="240.7"/>
</g>
<g>
	<polygon class="st0" points="127.2,333.5 91.2,396.9 161.2,359.4 	"/>
	<line class="st0" x1="124" y1="339.1" x2="135.3" y2="373.3"/>
	<line class="st0" x1="121.1" y1="344.3" x2="131.2" y2="375.5"/>
	<line class="st0" x1="118" y1="349.7" x2="127.1" y2="377.7"/>
	<line class="st0" x1="114.9" y1="355.1" x2="123" y2="379.9"/>
	<line class="st0" x1="112" y1="360.4" x2="119" y2="382.2"/>
	<line class="st0" x1="108.9" y1="365.8" x2="114.9" y2="384.3"/>
	<line class="st0" x1="105.7" y1="371.1" x2="110.7" y2="386.5"/>
	<line class="st0" x1="102.8" y1="376.6" x2="106.7" y2="388.6"/>
	<line class="st0" x1="99.7" y1="382" x2="102.6" y2="390.9"/>
	<line class="st0" x1="96.7" y1="387.3" x2="98.5" y2="393"/>
	<line class="st0" x1="93.6" y1="392.8" x2="94.4" y2="395.2"/>
	<line class="st0" x1="127.2" y1="333.5" x2="139.4" y2="371.1"/>
	<line class="st0" x1="140.1" y1="343.4" x2="147.7" y2="366.6"/>
	<line class="st0" x1="133.8" y1="338.5" x2="143.6" y2="368.8"/>
	<line class="st0" x1="145.8" y1="347.7" x2="151.3" y2="364.7"/>
	<line class="st0" x1="158.7" y1="357.5" x2="159.6" y2="360.3"/>
	<line class="st0" x1="152.3" y1="352.6" x2="155.5" y2="362.4"/>
</g>
<g>
	<polygon class="st0" points="747,48.2 762.8,49.7 725.6,111.1 718.3,95.1 	"/>
	<polygon class="st6" points="726.5,85.1 738.4,86.3 735.7,90.7 723.7,89.5 	"/>
	<polygon class="st6" points="747.9,50 759.8,51 739.1,85.3 727,84.1 	"/>
	<polygon class="st6" points="723.1,90.6 735.1,91.8 733.7,94 721.7,92.8 	"/>
</g>
<g>
	<polygon class="st6" points="181.4,155.6 173.9,168.7 158.7,168.7 151.1,155.6 158.7,142.4 173.9,142.4 	"/>
	<line class="st6" x1="158.7" y1="142.4" x2="173.9" y2="168.7"/>
	<line class="st6" x1="154.7" y1="149.2" x2="166" y2="168.7"/>
	<line class="st6" x1="166.4" y1="142.4" x2="177.7" y2="161.9"/>
	<line class="st6" x1="152.7" y1="152.6" x2="162.1" y2="168.5"/>
	<line class="st6" x1="169.6" y1="142.4" x2="179.6" y2="158.6"/>
	<line class="st6" x1="156.4" y1="146" x2="169.5" y2="168.7"/>
	<line class="st6" x1="162.6" y1="142.3" x2="175.9" y2="165.1"/>
</g>
<g>
	<path class="st3" d="M285,75.7l-15.7,15.8h-47.5v39.1h60.7l-15.8,15.8h-50.2l-16.1-15.8V91.8l16.1-16.2H285z"/>
	<path class="st3" d="M385.8,75.7l-37.2,37.4v45.6l-21.4-12.2v-33.4l-37.4-37.4h25.4l22.7,22.8l22.7-22.8H385.8z"/>
	<path class="st3" d="M487.2,124.7l-16.1,21.7h-74.9V75.7h74.9l16.1,21.7l-10.1,13.7L487.2,124.7z M463.8,97.4l-5.2-5.9h-41V104h41
		L463.8,97.4z M463.8,124.8l-5.2-6.4h-41v12.2h41L463.8,124.8z"/>
	<path class="st3" d="M586.1,75.7l-15.7,15.8h-47.5V104h52.9l-14.4,14.4h-38.5v12.2h60.7l-15.8,15.8h-66.2V75.7H586.1z"/>
	<path class="st3" d="M686.5,158.7l-21.4-12.3v-17.3l-6.4-6.3h-40.8v23.6h-21.4V75.7h73.9l16.1,21.8l-12.2,16.4l12.2,12.2V158.7z
		 M664.6,98.8l-5.6-7.4h-41.1v15.2h41L664.6,98.8z"/>
</g>
<g>
	<path class="st3" d="M280.1,313.5h-16.2l-50.2-41.3v41.3l-21.4-0.1v-70.7h15l51.4,42.3v-42.2l21.4-12.4V313.5z"/>
	<path class="st3" d="M381,325.7l-21.4-12.1v-20.4h-43.1v20.3l-21.4-0.1v-54.8l16.1-15.8H365l16.1,15.8V325.7z M359.7,277.6v-19.1
		h-43.1v19.1H359.7z"/>
	<path class="st3" d="M473.8,242.7l-15.7,15.8h-21v67.2l-21.4-12.2v-55h-21L379,242.7H473.8z"/>
	<path class="st3" d="M505,313.5l-21.4-0.1v-70.6l21.4-12.3V313.5z"/>
	<path class="st3" d="M613.8,242.7l-38.4,70.8h-19.9l-38.4-70.8h21.7l26.6,48.5l26.6-48.5H613.8z"/>
	<path class="st3" d="M706.8,242.7l-15.7,15.8h-47.5V271h52.9l-14.4,14.4h-38.5v12.2h60.7l-15.8,15.8h-66.2v-70.8H706.8z"/>
</g>
</svg>
